<svg xmlns="http://www.w3.org/2000/svg" width="209" height="36" viewBox="0 0 209 36">
  <g id="SuperFairShop_onwhite" transform="translate(-485 -152)">
    <rect id="Rectangle_1105" data-name="Rectangle 1105" width="71" height="36" rx="4" transform="translate(623 152)" fill="#fff"/>
    <rect id="Rectangle_1113" data-name="Rectangle 1113" width="123" height="36" rx="4" transform="translate(485 152)" fill="#fff"/>
    <g id="Group_1295" data-name="Group 1295" transform="translate(-193.926 -115)">
      <g id="Group_1281" data-name="Group 1281" transform="translate(824.926 283.231)">
        <path id="Path_15" data-name="Path 15" d="M3.24-13.407H5.488V-25.783H3.24Zm24.681-1.482a5.991,5.991,0,0,0,4.27,1.691c2.58,0,4.079-1.656,4.079-3.625,0-3.957-5.822-3.416-5.822-5.612,0-.872.819-1.482,1.865-1.482a4.518,4.518,0,0,1,2.737,1.081l.976-1.83a5.261,5.261,0,0,0-3.7-1.325c-2.37,0-4.148,1.534-4.148,3.591,0,3.8,5.839,3.416,5.839,5.63,0,1.011-.854,1.5-1.8,1.5a4.957,4.957,0,0,1-3.085-1.307Zm9.186-2.963A4.555,4.555,0,0,0,41.883-13.2a5.554,5.554,0,0,0,3.573-1.272L44.6-16.057a4.392,4.392,0,0,1-2.562.976,2.529,2.529,0,0,1-2.667-2.353h6.135s.052-.593.052-.854c0-2.353-1.377-4.218-3.939-4.218A4.394,4.394,0,0,0,37.107-17.852Zm2.336-1.1A2.07,2.07,0,0,1,41.569-20.8a1.716,1.716,0,0,1,1.76,1.848Zm7.39,2.771c0,2.545,1.516,2.859,2.737,2.859a5.047,5.047,0,0,0,.7-.052v-1.935s-.157.017-.331.017c-.575,0-.906-.244-.906-1.22v-9.273h-2.2Zm4.514,0c0,2.545,1.516,2.859,2.737,2.859a5.047,5.047,0,0,0,.7-.052v-1.935s-.157.017-.331.017c-.575,0-.906-.244-.906-1.22v-9.273h-2.2Z" transform="translate(-3.24 25.992)" fill="#222"/>
        <path id="Path_18" data-name="Path 18" d="M11.484-17.629c0,2.754,1.534,4.654,3.939,4.654a3.087,3.087,0,0,0,2.789-1.516h.035a4.508,4.508,0,0,0-.035.575v.732H20.3V-25.56H18.09v3.9c0,.279.017.505.017.505h-.035a2.786,2.786,0,0,0-2.562-1.133C13.157-22.283,11.484-20.453,11.484-17.629Zm2.231,0c0-1.76,1.011-2.754,2.231-2.754,1.482,0,2.214,1.36,2.214,2.737,0,1.97-1.081,2.806-2.231,2.806C14.621-14.84,13.715-15.939,13.715-17.629Zm7.931,0a4.668,4.668,0,0,0,4.9,4.654,4.663,4.663,0,0,0,4.88-4.654,4.679,4.679,0,0,0-4.9-4.654A4.674,4.674,0,0,0,21.646-17.629Zm2.248,0A2.656,2.656,0,0,1,26.544-20.4a2.653,2.653,0,0,1,2.632,2.771,2.642,2.642,0,0,1-2.632,2.771A2.646,2.646,0,0,1,23.894-17.629Z" transform="translate(-7.493 25.769)" fill="#1fd18e"/>
        <circle id="Ellipse_1" data-name="Ellipse 1" cx="2.179" cy="2.179" r="2.179" transform="translate(53.142 8.396)" fill="#1fd18e"/>
      </g>
      <path id="Path_2164" data-name="Path 2164" d="M.912,0h.941V-2.48h1.51A2.025,2.025,0,0,0,5.472-4.608a2,2,0,0,0-2.109-2.1H.912Zm.941-3.3V-5.89H3.221A1.186,1.186,0,0,1,4.513-4.608,1.21,1.21,0,0,1,3.211-3.3Zm4.285.883A2.517,2.517,0,0,0,8.731.114a2.517,2.517,0,0,0,2.594-2.527A2.508,2.508,0,0,0,8.731-4.921,2.508,2.508,0,0,0,6.137-2.413Zm.941,0a1.656,1.656,0,0,1,1.653-1.71,1.65,1.65,0,0,1,1.653,1.71A1.661,1.661,0,0,1,8.731-.684,1.666,1.666,0,0,1,7.078-2.413ZM13.4,0h1.026l.988-3.088c.076-.247.133-.523.133-.523h.019s.057.276.133.523L16.7,0h1.017l1.549-4.807H18.3L17.29-1.435a3.868,3.868,0,0,0-.114.513h-.019s-.057-.266-.133-.513L15.989-4.8h-.846L14.1-1.435a5,5,0,0,0-.123.513h-.019c-.009,0-.047-.266-.123-.513l-1-3.373h-.979Zm6.412-2.4A2.448,2.448,0,0,0,22.363.114,2.861,2.861,0,0,0,24.225-.57l-.38-.675a2.292,2.292,0,0,1-1.425.561,1.571,1.571,0,0,1-1.653-1.587h3.505s.028-.275.028-.4a2.046,2.046,0,0,0-2.08-2.251A2.356,2.356,0,0,0,19.817-2.4Zm.979-.56A1.377,1.377,0,0,1,22.2-4.19a1.134,1.134,0,0,1,1.159,1.226ZM25.422,0h.921V-1.967a2.921,2.921,0,0,1,.114-.864,1.458,1.458,0,0,1,1.349-1.131,1.327,1.327,0,0,1,.266.028v-.912a1.635,1.635,0,0,0-.237-.019,1.643,1.643,0,0,0-1.52,1.254H26.3a3.448,3.448,0,0,0,.019-.361v-.836h-.893Zm3.2-2.4A2.448,2.448,0,0,0,31.17.114,2.861,2.861,0,0,0,33.032-.57l-.38-.675a2.292,2.292,0,0,1-1.425.561,1.571,1.571,0,0,1-1.653-1.587h3.506s.028-.275.028-.4a2.046,2.046,0,0,0-2.081-2.251A2.356,2.356,0,0,0,28.624-2.4Zm.979-.56A1.377,1.377,0,0,1,31.008-4.19a1.134,1.134,0,0,1,1.159,1.226Zm4.313.56c0,1.492.817,2.518,2.118,2.518a1.684,1.684,0,0,0,1.577-.893h.019s-.01.133-.01.323V0h.874V-6.707h-.921v2.223a2.721,2.721,0,0,0,.019.323h-.019a1.6,1.6,0,0,0-1.482-.76A2.241,2.241,0,0,0,33.915-2.4Zm.94,0c0-1.093.627-1.72,1.387-1.72.912,0,1.359.855,1.359,1.71,0,1.226-.675,1.729-1.387,1.729C35.416-.684,34.855-1.359,34.855-2.4ZM42.38,0h.874V-.352a3.225,3.225,0,0,0-.019-.361h.019a1.728,1.728,0,0,0,1.51.827A2.253,2.253,0,0,0,46.949-2.4c0-1.492-.817-2.517-2.109-2.517A1.7,1.7,0,0,0,43.3-4.1h-.019s.019-.171.019-.409V-6.707H42.38Zm.893-2.385c0-1.225.665-1.729,1.387-1.729.8,0,1.359.674,1.359,1.72,0,1.092-.627,1.72-1.387,1.72C43.719-.675,43.273-1.53,43.273-2.385ZM47.405,1.7A1.682,1.682,0,0,0,48.336,2,1.652,1.652,0,0,0,49.894.865l2.251-5.672h-1L49.98-1.653c-.086.247-.162.57-.162.57H49.8s-.086-.332-.181-.58L48.412-4.807H47.377l2.014,4.75-.237.551a.982.982,0,0,1-.865.7,1.072,1.072,0,0,1-.561-.2Z" transform="translate(824.019 280)" fill="#222"/>
    </g>
    <g id="Group_1314" data-name="Group 1314" transform="translate(-990.984 32.511)">
      <path id="Path_2176" data-name="Path 2176" d="M-6227.526-1572.68v-10.545h.976v.734a5.529,5.529,0,0,1-.03.585h.03a2.739,2.739,0,0,1,2.609-1.5c2.025,0,3.286,1.621,3.286,3.961,0,2.384-1.426,3.945-3.375,3.945a2.728,2.728,0,0,1-2.476-1.44h-.028s.028.27.028.66v3.6Zm.992-6.75c0,1.515.839,3.031,2.4,3.031,1.334,0,2.43-1.126,2.43-3.045,0-1.845-.976-3.031-2.386-3.031C-6225.35-1582.476-6226.535-1581.575-6226.535-1579.431Zm-76.276,6.75v-10.651h1.74v.555a4.762,4.762,0,0,1-.03.525h.03a2.738,2.738,0,0,1,2.46-1.259c2.07,0,3.391,1.635,3.391,4,0,2.43-1.486,4-3.5,4a2.643,2.643,0,0,1-2.19-1.05h-.028s.028.27.028.66v3.21Zm1.845-6.781c0,1.185.646,2.355,1.906,2.355,1.05,0,1.919-.855,1.919-2.37,0-1.454-.781-2.4-1.905-2.4C-6300.036-1581.875-6300.966-1581.155-6300.966-1579.461Zm63.931-.03a3.906,3.906,0,0,1,3.989-3.915,3.907,3.907,0,0,1,3.991,3.915,3.942,3.942,0,0,1-3.991,3.991A3.941,3.941,0,0,1-6237.035-1579.491Zm1.049,0a2.977,2.977,0,0,0,2.94,3.075,2.977,2.977,0,0,0,2.941-3.075,2.928,2.928,0,0,0-2.941-2.985A2.927,2.927,0,0,0-6235.986-1579.491Zm-17.189,2.641.614-.795a4.121,4.121,0,0,0,2.762,1.155,1.9,1.9,0,0,0,2.1-1.83c0-2.655-5.266-1.979-5.266-5.25a3.033,3.033,0,0,1,3.285-2.834,4.091,4.091,0,0,1,2.82,1.02l-.509.869a3.6,3.6,0,0,0-2.311-.9,2.019,2.019,0,0,0-2.22,1.815c0,2.5,5.266,1.786,5.266,5.25a2.908,2.908,0,0,1-3.194,2.85A4.648,4.648,0,0,1-6253.175-1576.85Zm-20.565-1.036c0-2.43,3.285-2.595,4.53-2.595h.255v-.1c0-1.005-.629-1.35-1.47-1.35a4.1,4.1,0,0,0-2.1.734l-.72-1.364a5.161,5.161,0,0,1,3-.945,2.839,2.839,0,0,1,3.179,3.045v4.785h-1.754v-.631a4.793,4.793,0,0,1,.03-.539h-.03a2.477,2.477,0,0,1-2.325,1.35A2.4,2.4,0,0,1-6273.741-1577.886Zm1.921-.089a1.02,1.02,0,0,0,1.154.99,1.965,1.965,0,0,0,1.724-2.01v-.181h-.33C-6270.245-1579.176-6271.82-1579.041-6271.82-1577.975Zm-22.74-1.531a3.781,3.781,0,0,1,3.884-4,3.308,3.308,0,0,1,3.39,3.631c0,.224-.044.734-.044.734h-5.28a2.177,2.177,0,0,0,2.295,2.025,3.78,3.78,0,0,0,2.205-.841l.734,1.366a4.777,4.777,0,0,1-3.074,1.094A3.92,3.92,0,0,1-6294.56-1579.505Zm2.009-.945h3.345a1.477,1.477,0,0,0-1.515-1.589A1.781,1.781,0,0,0-6292.551-1580.451Zm-19.125,2.04v-4.92h1.9v4.53c0,.931.239,1.561,1.185,1.561a2.3,2.3,0,0,0,2.146-2.581v-3.51h1.9v7.651h-1.831v-.871a4.793,4.793,0,0,1,.03-.539h-.03a2.947,2.947,0,0,1-2.655,1.589C-6310.656-1575.5-6311.676-1576.325-6311.676-1578.411Zm-8.34,1.456,1.05-1.456a4.264,4.264,0,0,0,2.655,1.126c.809,0,1.545-.42,1.545-1.291,0-1.9-5.025-1.575-5.025-4.844,0-1.77,1.529-3.09,3.57-3.09a4.525,4.525,0,0,1,3.179,1.139l-.839,1.575a3.888,3.888,0,0,0-2.355-.929c-.9,0-1.605.525-1.605,1.275,0,1.889,5.011,1.424,5.011,4.83a3.182,3.182,0,0,1-3.51,3.12A5.157,5.157,0,0,1-6320.016-1576.955Zm80.535,1.275v-4.531c0-1.185-.179-2.235-1.635-2.235a2.866,2.866,0,0,0-2.746,2.146,3.606,3.606,0,0,0-.119,1v3.616H-6245v-10.546h1.02v4.081a6.123,6.123,0,0,1-.03.614h.03a3.231,3.231,0,0,1,3-1.875c1.861,0,2.521,1.066,2.521,2.925v4.8Zm-16.74,0v-1.546h1.529v1.546Zm-5.61,0v-7.651h1.83v1.321a5.252,5.252,0,0,1-.03.539h.03a2.633,2.633,0,0,1,2.43-1.965,2.167,2.167,0,0,1,.344.03v1.875a3.271,3.271,0,0,0-.449-.03,2.166,2.166,0,0,0-2.085,1.605,4.084,4.084,0,0,0-.165,1.245v3.031Zm-3.631,0v-7.651h1.905v7.651Zm-14.8,0v-10.651h6.121v1.665h-4.186v3.015h3.526v1.664h-3.526v4.306Zm-5.819,0v-7.651h1.83v1.321a5.252,5.252,0,0,1-.03.539h.03a2.633,2.633,0,0,1,2.43-1.965,2.167,2.167,0,0,1,.344.03v1.875a3.271,3.271,0,0,0-.449-.03,2.166,2.166,0,0,0-2.085,1.605,4.084,4.084,0,0,0-.165,1.245v3.031Zm74.382-5.951-.222-2.773a1.771,1.771,0,0,1,.011-.317h-.022l-1,2.236h-.644l-1-2.236h-.022a1.771,1.771,0,0,1,.011.317l-.222,2.773h-.79l.368-4.639h.728l1.1,2.425a3.166,3.166,0,0,1,.146.443h.022s.063-.252.136-.443l1.1-2.425h.738l.358,4.639Zm-6.644,0v-3.934h-1.6v-.706h4.008v.706h-1.6v3.934Zm-47.114-3v-1.7h1.891v1.7Z" transform="translate(7804.199 1723.991)" fill="#222" stroke="rgba(0,0,0,0)" stroke-width="1"/>
      <path id="Path_7014" data-name="Path 7014" d="M.456-3.392A3.376,3.376,0,0,0,3.886.114,3.6,3.6,0,0,0,6.489-.95l-.5-.675a3.035,3.035,0,0,1-2.071.874A2.518,2.518,0,0,1,1.425-3.4,2.438,2.438,0,0,1,3.9-5.966a3.06,3.06,0,0,1,1.938.732l.466-.7a3.453,3.453,0,0,0-2.442-.884A3.348,3.348,0,0,0,.456-3.392ZM7.248-2.4A2.448,2.448,0,0,0,9.795.114,2.861,2.861,0,0,0,11.656-.57l-.38-.675a2.292,2.292,0,0,1-1.425.561A1.571,1.571,0,0,1,8.2-2.271H11.7s.028-.275.028-.4A2.046,2.046,0,0,0,9.652-4.921,2.356,2.356,0,0,0,7.248-2.4Zm.978-.56A1.377,1.377,0,0,1,9.633-4.19a1.134,1.134,0,0,1,1.159,1.226ZM12.854,0h.922V-1.967a2.921,2.921,0,0,1,.114-.864,1.458,1.458,0,0,1,1.349-1.131,1.327,1.327,0,0,1,.266.028v-.912a1.635,1.635,0,0,0-.238-.019,1.643,1.643,0,0,0-1.52,1.254h-.019a3.447,3.447,0,0,0,.019-.361v-.836h-.893Zm3.762-1.758a1.657,1.657,0,0,0,1.843,1.8,2.526,2.526,0,0,0,.323-.019V-.8a1.109,1.109,0,0,1-.219.019.955.955,0,0,1-1.026-1.083V-4H18.7V-4.74H17.537V-6.128h-.893V-4.74h-.656V-4h.627Zm3.192-4.009h.931v-.94h-.931ZM19.817,0h.921V-4.807h-.921Zm5.557,0H26.3V-4.807H23.351V-4.95a.913.913,0,0,1,1.007-1.007,1.335,1.335,0,0,1,.238.019v-.788a1.977,1.977,0,0,0-.351-.029,1.637,1.637,0,0,0-1.805,1.786v.161h-.6v.741h.6V0h.912V-4.066h2.023Zm-.01-5.767H26.3v-.94h-.931ZM27.407-2.4A2.448,2.448,0,0,0,29.953.114,2.861,2.861,0,0,0,31.815-.57l-.38-.675a2.292,2.292,0,0,1-1.425.561,1.571,1.571,0,0,1-1.653-1.587h3.506s.028-.275.028-.4a2.046,2.046,0,0,0-2.081-2.251A2.356,2.356,0,0,0,27.407-2.4Zm.979-.56A1.377,1.377,0,0,1,29.792-4.19a1.134,1.134,0,0,1,1.159,1.226ZM32.7-2.4c0,1.492.817,2.518,2.118,2.518a1.684,1.684,0,0,0,1.577-.893h.019s-.01.133-.01.323V0h.874V-6.707h-.921v2.223a2.721,2.721,0,0,0,.019.323h-.019a1.6,1.6,0,0,0-1.482-.76A2.241,2.241,0,0,0,32.7-2.4Zm.94,0c0-1.093.627-1.72,1.387-1.72.912,0,1.359.855,1.359,1.71,0,1.226-.675,1.729-1.387,1.729C34.2-.684,33.639-1.359,33.639-2.4Z" transform="translate(1483.945 132.49)" fill="#222"/>
    </g>
  </g>
</svg>
