<?xml version="1.0" encoding="UTF-8"?><svg id="a" xmlns="http://www.w3.org/2000/svg" viewBox="0 0 101.6 33.38"><defs><style>.f,.g{fill:#1434cb;}.g{fill-rule:evenodd;}</style></defs><path id="b" class="g" d="M5.72,.41H0V1.41H0c4.47,.14,5.8,2.24,6.29,4.66l2.64,26.08h8.66L36.09,.41h-8.66l-11.12,19.1L14.43,.41H5.72Z"/><path id="c" class="g" d="M40.7,.4h8.41l-10.31,31.75h-8.37L40.7,.4Z"/><path id="d" class="g" d="M87,1.07l-16.24,31.08h9.12l2.37-4.75h10.58l.37,4.75h8.4l-2.38-31.08h-12.22Zm4.42,8l1,13.17h-7.56l6.56-13.17Z"/><path id="e" class="f" d="M51.17,8.48c1.26-5,5.4-8.48,12.45-8.48,4.18,.13,8.2,1.58,11.5,4.15l-5,5.24s-3.69-2.89-5.87-2.89c-2.87,0-4.17,1.05-4.44,2.78-.53,3.44,11.73,5.54,11.34,13.56-.26,5.35-5.8,10.54-12.13,10.54-9.5,0-14.19-3.8-14.19-3.8l4.28-6.11s4.32,3.44,8.32,3.25c2.73-.12,4.82-1.17,4.68-3-.32-4.18-13.22-6.1-10.94-15.23h0Z"/></svg>